HIERARCHY
ROOT Hips
{
	OFFSET 0.000000 0.000000 0.000000
	CHANNELS 6 Xposition Yposition Zposition Zrotation Yrotation Xrotation 
	JOINT LeftUpLeg_virtual
	{
		OFFSET 0.000000 0.000000 0.000000
		CHANNELS 3 Zrotation Yrotation Xrotation
		JOINT LeftUpLeg
		{
			OFFSET 8.479694 -4.795517 -0.379053
			CHANNELS 3 Zrotation Yrotation Xrotation
			JOINT LeftLeg
			{
				OFFSET 0.485052 -32.551468 0.112863
				CHANNELS 3 Zrotation Yrotation Xrotation
				JOINT LeftFoot
				{
					OFFSET 0.438033 -32.635670 -3.012641
					CHANNELS 3 Zrotation Yrotation Xrotation
					JOINT LeftToeBase
					{
						OFFSET 0.970169 -13.225353 11.864223
						CHANNELS 3 Zrotation Yrotation Xrotation
						End Site
						{
							OFFSET 0.000000 0.000000 0.000000
						}
					}
				}
			}
		}
	}
	JOINT RightUpLeg_virtual
	{
		OFFSET 0.000000 0.000000 0.000000
		CHANNELS 3 Zrotation Yrotation Xrotation
		JOINT RightUpLeg
		{
			OFFSET -8.479694 -4.795517 -0.379053
			CHANNELS 3 Zrotation Yrotation Xrotation
			JOINT RightLeg
			{
				OFFSET -0.484100 -32.551483 0.112903
				CHANNELS 3 Zrotation Yrotation Xrotation
				JOINT RightFoot
				{
					OFFSET -0.438985 -32.635651 -3.012681
					CHANNELS 3 Zrotation Yrotation Xrotation
					JOINT RightToeBase
					{
						OFFSET -0.970169 -13.225354 11.864223
						CHANNELS 3 Zrotation Yrotation Xrotation
						End Site
						{
							OFFSET 0.000000 0.000000 0.000000
						}
					}
				}
			}
		}
	}
	JOINT Spine_virtual
	{
		OFFSET 0.000000 0.000000 0.000000
		CHANNELS 3 Zrotation Yrotation Xrotation
		JOINT Spine
		{
			OFFSET 0.000000 7.722015 1.166203
			CHANNELS 3 Zrotation Yrotation Xrotation
			JOINT Spine1
			{
				OFFSET 0.000000 12.024086 0.248766
				CHANNELS 3 Zrotation Yrotation Xrotation
				JOINT Spine2
				{
					OFFSET -0.000000 11.503036 -0.491240
					CHANNELS 3 Zrotation Yrotation Xrotation
					JOINT Neck_virtual
					{
						OFFSET 0.000000 0.000000 0.000000
						CHANNELS 3 Zrotation Yrotation Xrotation
						JOINT Neck
						{
							OFFSET 0.000000 18.430687 -3.123054
							CHANNELS 3 Zrotation Yrotation Xrotation
							JOINT Head
							{
								OFFSET -0.000000 9.051071 1.034021
								CHANNELS 3 Zrotation Yrotation Xrotation
								End Site
								{
									OFFSET 0.000000 0.000000 0.000000
								}
							}
						}
					}
					JOINT LeftShoulder_virtual
					{
						OFFSET 0.000000 0.000000 0.000000
						CHANNELS 3 Zrotation Yrotation Xrotation
						JOINT LeftShoulder
						{
							OFFSET 6.197824 13.665230 -4.064723
							CHANNELS 3 Zrotation Yrotation Xrotation
							JOINT LeftArm
							{
								OFFSET 7.778132 -0.187073 -1.709282
								CHANNELS 3 Zrotation Yrotation Xrotation
								JOINT LeftForeArm
								{
									OFFSET 21.954697 0.000000 -2.041093
									CHANNELS 3 Zrotation Yrotation Xrotation
									JOINT LeftHand
									{
										OFFSET 22.992908 0.000000 -0.870901
										CHANNELS 3 Zrotation Yrotation Xrotation
										End Site
										{
											OFFSET 0.000000 0.000000 0.000000
										}
									}
								}
							}
						}
					}
					JOINT RightShoulder_virtual
					{
						OFFSET 0.000000 0.000000 0.000000
						CHANNELS 3 Zrotation Yrotation Xrotation
						JOINT RightShoulder
						{
							OFFSET -6.197824 13.665230 -4.064723
							CHANNELS 3 Zrotation Yrotation Xrotation
							JOINT RightArm
							{
								OFFSET -7.778132 -0.187073 -1.709282
								CHANNELS 3 Zrotation Yrotation Xrotation
								JOINT RightForeArm
								{
									OFFSET -21.954697 0.000000 -2.041093
									CHANNELS 3 Zrotation Yrotation Xrotation
									JOINT RightHand
									{
										OFFSET -22.992908 0.000000 -0.870901
										CHANNELS 3 Zrotation Yrotation Xrotation
										End Site
										{
											OFFSET 0.000000 0.000000 0.000000
										}
									}
								}
							}
						}
					}
				}
			}
		}
	}
}
MOTION
Frames: 7
Frame Time: 0.033333
-60.471642 80.496857 123.235352 1.174220 65.288180 1.209495 4.762194 -5.277025 17.658182 -3.303185 -10.556076 -33.725203 3.308383 -1.739284 35.370992 -14.983751 -10.135157 4.523859 0.000000 0.000000 0.000000 10.294590 -2.971275 16.862154 -15.651621 0.369818 -45.546737 1.331858 5.628681 45.110603 10.440995 14.420833 -3.928525 0.000000 0.000000 0.000000 14.168334 -1.481966 15.270621 5.889444 2.448408 -1.384015 -0.058343 -3.886217 12.585868 0.126000 0.155223 0.017275 0.084218 -3.139677 15.988786 -7.560920 10.580661 -7.635896 0.000000 0.000000 0.000000 1.251809 -2.251388 12.188138 -11.008738 -11.352004 10.078495 -63.900265 -12.566931 13.596484 4.649001 -29.384690 36.304067 0.000000 0.000000 0.000000 -2.566148 -0.756176 11.801051 17.682293 5.866718 3.696192 36.320914 22.602783 -35.783972 -0.327668 20.560727 -6.023817 0.000000 0.000000 0.000000 
-60.671585 80.763725 124.465073 1.168384 68.233631 1.187118 5.731155 -5.437888 17.245282 -4.183465 -9.048296 -33.780541 3.993398 -1.281561 35.096565 -15.304345 -9.415754 6.711192 0.000000 0.000000 0.000000 11.437908 -3.069166 16.676306 -15.354976 -0.633194 -44.502016 1.044771 5.202838 45.110179 9.522727 13.594374 -4.564479 0.000000 0.000000 0.000000 15.377816 -1.794555 15.297686 6.205834 2.481017 -1.851425 -0.098371 -4.106384 12.821466 0.041598 0.220021 -0.014547 0.019276 -3.529940 16.170295 -8.926291 11.004392 -7.179517 0.000000 0.000000 0.000000 1.313713 -2.393811 12.167057 -10.776830 -11.028951 10.252835 -63.848943 -12.857490 14.121184 4.375523 -29.559611 37.047684 0.000000 0.000000 0.000000 -2.517337 -0.733124 11.878157 17.181942 6.065780 3.567426 36.130386 21.776813 -37.055538 -0.101692 22.809200 -6.550317 0.000000 0.000000 0.000000 
-60.891800 81.086723 125.719170 1.178328 71.633118 1.131397 6.604303 -5.203653 16.867733 -5.086119 -6.709891 -34.006129 5.092456 -0.407105 34.315704 -14.365339 -8.131122 8.278711 0.000000 0.000000 0.000000 12.415525 -3.412876 16.416976 -14.780733 -1.690398 -43.133246 0.693576 4.717673 44.474726 8.630990 12.639046 -5.312943 0.000000 0.000000 0.000000 16.545800 -2.161694 15.329144 6.853431 2.767889 -2.618648 -0.155392 -4.398498 12.834747 0.033011 0.130096 0.001498 -0.045129 -3.695490 15.980969 -9.903461 11.459586 -6.865649 0.000000 0.000000 0.000000 1.412993 -2.651720 12.004130 -9.736378 -9.721354 10.034341 -64.062373 -11.819658 15.007240 3.143153 -31.803485 37.973833 0.000000 0.000000 0.000000 -2.562202 -0.923759 11.643345 16.599185 5.885358 3.471861 36.477797 19.820120 -37.859199 0.093725 24.935745 -7.360446 0.000000 0.000000 0.000000 
-61.166481 81.425179 126.920418 0.852066 74.817605 0.816339 7.449909 -5.108138 16.463923 -5.759235 -4.575193 -34.551024 6.217027 0.358389 33.112873 -13.268837 -6.807336 9.580819 0.000000 0.000000 0.000000 13.181491 -4.174544 16.089525 -14.113356 -2.470697 -41.672883 0.249122 4.417043 43.176474 7.770704 11.520290 -5.944779 0.000000 0.000000 0.000000 17.576339 -2.817531 15.368337 7.749795 3.237647 -3.537145 -0.254452 -4.558368 12.750649 0.071956 0.077233 -0.047361 -0.158151 -3.858087 15.816403 -10.569660 11.319532 -6.558994 0.000000 0.000000 0.000000 1.365389 -2.847767 11.906022 -8.530960 -7.367218 9.515109 -64.387360 -9.997153 16.124922 1.170380 -35.035694 39.028264 0.000000 0.000000 0.000000 -2.692138 -1.119309 11.473873 15.710823 5.549158 3.254531 37.016405 17.350432 -38.546432 0.469561 26.541628 -8.075399 0.000000 0.000000 0.000000 
-61.469501 81.752197 127.947548 0.653582 78.071022 0.657410 8.185665 -5.028558 16.141697 -6.448797 -2.867259 -35.128295 7.826994 1.522038 31.559531 -13.088985 -5.358792 10.437393 0.000000 0.000000 0.000000 13.565960 -5.265108 15.539712 -13.662001 -2.291329 -39.967863 -0.029166 3.557236 41.088133 7.314739 10.363067 -6.120306 0.000000 0.000000 0.000000 18.327735 -3.687012 15.370238 8.871929 3.842479 -4.458765 -0.345095 -4.632467 12.626209 0.008409 0.061325 -0.037907 -0.296393 -3.963797 15.570690 -10.917663 10.934958 -6.356372 0.000000 0.000000 0.000000 1.250788 -2.985425 11.630567 -7.323352 -4.488815 8.760352 -64.912991 -8.193497 17.400160 -0.736151 -38.524637 39.702565 0.000000 0.000000 0.000000 -2.921034 -1.230951 11.133931 15.052434 4.932061 2.993027 37.223558 14.487062 -38.860481 0.959070 27.428891 -8.598657 0.000000 0.000000 0.000000 
-61.768028 82.031685 128.771973 -0.654178 81.297372 -0.752789 8.915427 -5.547467 15.919405 -6.698574 -1.932494 -35.511670 9.218683 2.430177 29.685054 -13.533639 -4.355834 9.582905 0.000000 0.000000 0.000000 13.815278 -6.470287 14.975142 -12.676831 -2.251739 -38.197621 -0.653274 3.210028 39.187360 6.547897 9.585076 -6.100348 0.000000 0.000000 0.000000 18.913841 -4.746747 15.305487 10.190400 4.429439 -5.188271 -0.488850 -4.698367 12.538434 0.022903 0.043134 -0.058154 -0.670408 -4.097941 15.285152 -10.917490 10.200660 -6.383050 0.000000 0.000000 0.000000 0.927976 -2.975842 11.326673 -6.494333 -1.233834 7.903010 -65.477486 -6.966049 18.706107 -2.412635 -41.228405 40.238079 0.000000 0.000000 0.000000 -3.300042 -1.208917 10.845702 14.513450 4.418695 2.763306 37.185148 11.841794 -39.481144 1.450876 27.735170 -9.097821 0.000000 0.000000 0.000000 
-62.098495 82.254669 129.352249 -0.204099 83.886792 -0.556037 9.118179 -6.195950 15.808633 -6.959926 -0.471189 -35.701378 10.188530 3.248693 28.025716 -13.837841 -3.923082 9.319081 0.000000 0.000000 0.000000 14.182987 -7.289916 14.215537 -12.129931 -2.505009 -36.750031 -1.246703 3.333461 37.734521 5.667346 8.883692 -6.001529 0.000000 0.000000 0.000000 19.004966 -5.498269 15.428098 11.376288 5.014435 -5.605009 -0.738175 -4.624737 12.520135 -0.048282 0.095813 -0.135984 -0.788196 -3.944299 15.146981 -10.577157 9.620149 -6.586687 0.000000 0.000000 0.000000 0.772308 -3.022012 11.050373 -6.146143 1.901532 7.027813 -66.037923 -6.408150 19.978583 -3.081923 -42.703053 39.961750 0.000000 0.000000 0.000000 -3.524303 -1.165261 10.734489 14.214267 3.777804 2.509527 36.833646 9.456327 -40.113441 1.697411 27.767811 -9.690085 0.000000 0.000000 0.000000 
